<?xml version="1.0" encoding="iso-8859-1"?>
<!-- Generator: Adobe Illustrator 19.0.0, SVG Export Plug-In . SVG Version: 6.00 Build 0)  -->
<svg version="1.1" id="Capa_1" xmlns="http://www.w3.org/2000/svg" xmlns:xlink="http://www.w3.org/1999/xlink" x="0px" y="0px"
	 viewBox="0 0 512 512" style="enable-background:new 0 0 512 512;" xml:space="preserve">
<path style="fill:#ED8A19;" d="M256,0C159.17,0,65.377,103.724,124.337,228.555c0,0,52.215,90.342,52.215,124.548
	c0,26.483,8.457,52.966,26.483,52.966c19.491,0,86.44,0,105.931,0c18.026,0,26.483-26.483,26.483-52.966
	c0-34.207,52.215-124.548,52.215-124.548C446.623,103.724,352.83,0,256,0z"/>
<circle style="fill:#FFFFFF;" cx="256.071" cy="150.069" r="105.931"/>
<g>
	<path style="fill:#366DB6;" d="M211.933,185.379c-2.26,0-4.52-0.865-6.241-2.586l-26.483-26.483c-3.452-3.452-3.452-9.031,0-12.482
		l26.483-26.483c3.452-3.452,9.031-3.452,12.482,0s3.452,9.031,0,12.482l-20.242,20.242l20.242,20.242
		c3.452,3.452,3.452,9.031,0,12.482C216.452,184.514,214.193,185.379,211.933,185.379z"/>
	<path style="fill:#366DB6;" d="M300.209,185.379c-2.26,0-4.52-0.865-6.241-2.586c-3.452-3.452-3.452-9.031,0-12.482l20.242-20.242
		l-20.242-20.242c-3.452-3.452-3.452-9.031,0-12.482c3.452-3.452,9.031-3.452,12.482,0l26.483,26.483
		c3.452,3.452,3.452,9.031,0,12.482l-26.483,26.483C304.728,184.514,302.468,185.379,300.209,185.379z"/>
	<path style="fill:#366DB6;" d="M238.415,211.862c-0.918,0-1.863-0.15-2.79-0.459c-4.626-1.545-7.124-6.541-5.579-11.167
		l35.31-105.931c1.536-4.626,6.524-7.142,11.167-5.579c4.626,1.545,7.124,6.541,5.579,11.167l-35.31,105.931
		C245.557,209.523,242.114,211.862,238.415,211.862z"/>
</g>
<g>
	<path style="fill:#EBBA16;" d="M229.588,414.897c-4.873,0-8.828-3.955-8.828-8.828V291.31c0-4.873,3.955-8.828,8.828-8.828
		s8.828,3.955,8.828,8.828v114.759C238.415,410.942,234.461,414.897,229.588,414.897z"/>
	<path style="fill:#EBBA16;" d="M282.553,414.897c-4.873,0-8.828-3.955-8.828-8.828V291.31c0-4.873,3.955-8.828,8.828-8.828
		s8.828,3.955,8.828,8.828v114.759C291.381,410.942,287.426,414.897,282.553,414.897z"/>
	<path style="fill:#EBBA16;" d="M300.209,370.759h-88.276c-4.873,0-8.828-3.955-8.828-8.828s3.955-8.828,8.828-8.828h88.276
		c4.873,0,8.828,3.955,8.828,8.828S305.081,370.759,300.209,370.759z"/>
</g>
<path style="fill:#E7ECED;" d="M297.737,512h-83.332c-6.241,0-11.299-5.058-11.299-11.299v-32.839h105.931v32.839
	C309.036,506.942,303.978,512,297.737,512z"/>
<path style="fill:#AFB6BB;" d="M309.036,476.69H203.105c-9.754,0-17.655-7.901-17.655-17.655l0,0
	c0-9.754,7.901-17.655,17.655-17.655h105.931c9.754,0,17.655,7.901,17.655,17.655l0,0
	C326.691,468.789,318.791,476.69,309.036,476.69z"/>
<path style="fill:#E7ECED;" d="M309.036,441.379H203.105c-9.754,0-17.655-7.901-17.655-17.655l0,0
	c0-9.754,7.901-17.655,17.655-17.655h105.931c9.754,0,17.655,7.901,17.655,17.655l0,0
	C326.691,433.479,318.791,441.379,309.036,441.379z"/>
<g>
</g>
<g>
</g>
<g>
</g>
<g>
</g>
<g>
</g>
<g>
</g>
<g>
</g>
<g>
</g>
<g>
</g>
<g>
</g>
<g>
</g>
<g>
</g>
<g>
</g>
<g>
</g>
<g>
</g>
</svg>
